<svg width="50" height="50" viewBox="0 0 50 50" fill="none" xmlns="http://www.w3.org/2000/svg">
<g clip-path="url(#clip0)">
<rect width="50" height="50" fill="#343634"/>
<path d="M37.2295 10.144C36.9735 10.592 36.6962 10.9227 36.3975 11.136C36.1202 11.328 35.7682 11.424 35.3415 11.424C34.8935 11.424 34.4028 11.264 33.8695 10.944C33.3575 10.6027 32.7388 10.2293 32.0135 9.824C31.2882 9.41867 30.4348 9.056 29.4535 8.736C28.4935 8.39466 27.3522 8.224 26.0295 8.224C24.8348 8.224 23.7895 8.37333 22.8935 8.672C21.9975 8.94933 21.2402 9.344 20.6215 9.856C20.0242 10.368 19.5762 10.9867 19.2775 11.712C18.9788 12.416 18.8295 13.1947 18.8295 14.048C18.8295 15.136 19.1282 16.0427 19.7255 16.768C20.3442 17.4933 21.1548 18.112 22.1575 18.624C23.1602 19.136 24.3015 19.5947 25.5815 20C26.8615 20.4053 28.1735 20.8427 29.5175 21.312C30.8615 21.76 32.1735 22.2933 33.4535 22.912C34.7335 23.5093 35.8748 24.2773 36.8775 25.216C37.8802 26.1333 38.6802 27.264 39.2775 28.608C39.8962 29.952 40.2055 31.584 40.2055 33.504C40.2055 35.5947 39.8428 37.5573 39.1175 39.392C38.4135 41.2053 37.3682 42.7947 35.9815 44.16C34.6162 45.504 32.9415 46.5707 30.9575 47.36C28.9735 48.128 26.7015 48.512 24.1415 48.512C22.6695 48.512 21.2188 48.3627 19.7895 48.064C18.3602 47.7867 16.9842 47.3813 15.6615 46.848C14.3602 46.3147 13.1335 45.6747 11.9815 44.928C10.8295 44.1813 9.8055 43.3493 8.9095 42.432L11.4375 38.304C11.6508 38.0053 11.9282 37.76 12.2695 37.568C12.6108 37.3547 12.9735 37.248 13.3575 37.248C13.8908 37.248 14.4668 37.472 15.0855 37.92C15.7042 38.3467 16.4402 38.8267 17.2935 39.36C18.1468 39.8933 19.1388 40.384 20.2695 40.832C21.4215 41.2587 22.7975 41.472 24.3975 41.472C26.8508 41.472 28.7495 40.896 30.0935 39.744C31.4375 38.5707 32.1095 36.896 32.1095 34.72C32.1095 33.504 31.8002 32.512 31.1815 31.744C30.5842 30.976 29.7842 30.336 28.7815 29.824C27.7788 29.2907 26.6375 28.8427 25.3575 28.48C24.0775 28.1173 22.7762 27.7227 21.4535 27.296C20.1308 26.8693 18.8295 26.3573 17.5495 25.76C16.2695 25.1627 15.1282 24.384 14.1255 23.424C13.1228 22.464 12.3122 21.2693 11.6935 19.84C11.0962 18.3893 10.7975 16.608 10.7975 14.496C10.7975 12.8107 11.1282 11.168 11.7895 9.568C12.4722 7.968 13.4535 6.54933 14.7335 5.312C16.0135 4.07466 17.5922 3.08266 19.4695 2.336C21.3468 1.58933 23.5015 1.216 25.9335 1.216C28.6642 1.216 31.1815 1.64267 33.4855 2.496C35.7895 3.34933 37.7522 4.544 39.3735 6.08L37.2295 10.144Z" fill="#F7F6F7"/>
</g>
<defs>
<clipPath id="clip0">
<rect width="50" height="50" fill="white"/>
</clipPath>
</defs>
</svg>
